# xmcd CD database file
#
# Track frame offsets:
#	200
#	15187
#	31502
#	43422
#	57000
#	70660
#	81600
#	110227
#	126620
#	138240
#	150410
#	166392
#	177917
#	186040
#	206177
#
# Disc length: 2896 seconds
#
# Revision: 0
# Processed by: cddbd v1.5.2PL0 Copyright (c) Steve Scherf et al.
# Submitted via: CDex 1.78
#
DISCID=ce0b4e0f
DTITLE=Tarnation - I'll Give You Something To Cry About
DYEAR=1994
DGENRE=Country
TTITLE0=It's Not Easy
TTITLE1=Yellow Birds
TTITLE2=Never An Easy Way
TTITLE3=Game Of Broken Hearts
TTITLE4=They Took You Away Once Again
TTITLE5=Rancho Carne Humana
TTITLE6=Big O Motel
TTITLE7=Christine
TTITLE8=Sweat and Blood
TTITLE9=Do You Fancy Me?
TTITLE10=Strangers
TTITLE11=Lonely Lights
TTITLE12=Spanking Potion No. 5
TTITLE13=The Ring
TTITLE14=Tell Me It's Not So
EXTD=YEAR: 1994
EXTT0=
EXTT1=
EXTT2=
EXTT3=
EXTT4=
EXTT5=
EXTT6=
EXTT7=
EXTT8=
EXTT9=
EXTT10=
EXTT11=
EXTT12=
EXTT13=
EXTT14=
PLAYORDER=
